<?xml version="1.0" encoding="utf-8"?>
<!-- Generator: Adobe Illustrator 12.0.0, SVG Export Plug-In  -->
<!DOCTYPE svg PUBLIC "-//W3C//DTD SVG 1.1//EN" "http://www.w3.org/Graphics/SVG/1.1/DTD/svg11.dtd" [
	<!ENTITY ns_flows "http://ns.adobe.com/Flows/1.0/">
	<!ENTITY ns_svg "http://www.w3.org/2000/svg">
	<!ENTITY ns_xlink "http://www.w3.org/1999/xlink">
]>
<svg  version="1.1" xmlns="&ns_svg;" xmlns:xlink="&ns_xlink;" xmlns:a="http://ns.adobe.com/AdobeSVGViewerExtensions/3.0/"
	 width="650" height="222" viewBox="0 0 650 222" enable-background="new 0 0 650 222" xml:space="preserve">
<defs>
</defs>
<path fill="none" stroke="#53A3DA" stroke-width="4" d="M648,130C648,59.308,590.692,2,520,2"/>
<path fill="none" stroke="#2B88C7" stroke-width="4" d="M608,130c0-48.602-39.398-88-88-88"/>
<path fill="none" stroke="#297DB7" stroke-width="4" d="M568,130c0-26.51-21.49-48-48-48"/>
<g>
	<path fill="#144666" d="M9.855,91.281h46.464v3.456H13.696v41.855h42.623v3.457H13.696V186H9.855V91.281z"/>
	<path fill="#144666" d="M66.737,152.464c0.256,22.144,18.816,31.999,32.128,31.872c12.544,0,23.552-6.4,28.928-17.92h3.968
		c-3.072,7.168-7.936,12.543-13.696,16.127c-5.76,3.457-12.415,5.121-19.327,5.121c-25.6,0-35.712-20.352-35.712-35.456
		c0-20.353,15.616-35.711,35.84-35.711c9.088,0,17.792,3.2,24.319,9.087c7.424,6.656,11.776,16.896,11.136,26.88H66.737z
		 M130.736,149.137c-0.768-16.385-15.999-29.952-31.871-29.313c-16.768,0-30.976,12.16-32,29.313H130.736z"/>
	<path fill="#195178" d="M145.175,152.464c0.256,22.144,18.816,31.999,32.128,31.872c12.544,0,23.552-6.4,28.928-17.92h3.968
		c-3.072,7.168-7.936,12.543-13.696,16.127c-5.76,3.457-12.415,5.121-19.327,5.121c-25.6,0-35.712-20.352-35.712-35.456
		c0-20.353,15.616-35.711,35.84-35.711c9.088,0,17.792,3.2,24.319,9.087c7.424,6.656,11.776,16.896,11.136,26.88H145.175z
		 M209.174,149.137c-0.768-16.385-15.999-29.952-31.871-29.313c-16.768,0-30.976,12.16-32,29.313H209.174z"/>
	<path fill="#1D5C88" d="M291.515,186h-3.584v-17.537c-6.144,12.16-17.408,19.201-31.743,19.201
		c-22.272,0-35.712-17.281-35.712-35.584c0-18.688,13.823-35.583,35.712-35.583c16.383,0,28.159,10.112,31.743,19.583v-17.92V91.281
		h3.584V186z M224.06,152.208c0.128,15.231,10.624,32.128,32.512,32.128c8.96,0,17.023-3.584,22.783-9.473
		c5.76-5.887,9.216-14.08,8.96-23.039c0-9.088-3.456-17.023-9.216-22.784c-5.76-5.76-13.824-9.216-22.911-9.216
		c-17.664,0-32.128,13.184-32.128,32.256V152.208z"/>
	<path fill="#206798" d="M308.576,118.16h3.584v17.536c6.145-12.16,17.408-19.2,31.744-19.2c22.271,0,35.711,17.28,35.711,35.583
		c0,18.688-13.823,35.584-35.711,35.584c-16.384,0-28.16-10.113-31.744-19.584V186v27.264h-3.584V118.16z M376.032,151.952
		c-0.129-15.231-10.624-32.128-32.512-32.128c-9.088,0-17.024,3.584-22.784,9.344c-5.632,5.889-8.96,13.952-8.96,23.04
		c0,9.087,3.456,17.151,9.216,22.911s13.824,9.217,22.912,9.217c17.664,0,32.128-13.184,32.128-32.256V151.952z"/>
	<path fill="#2572A7" d="M388.012,151.952c0-20.097,15.359-35.456,35.711-35.456c20.353,0,35.712,15.359,35.712,35.583
		c0,20.352-15.359,35.584-35.712,35.584c-20.352,0-35.711-15.232-35.711-35.584V151.952z M391.596,152.208
		c0,18.304,13.823,32.128,32.127,32.128c18.305,0,32.128-13.824,32.128-32.256s-13.823-32.256-32.128-32.256
		c-18.304,0-32.127,13.824-32.127,32.256V152.208z"/>
	<path fill="#297DB7" d="M472.208,118.16h3.584c0,4.608,0,9.088-0.128,14.721c4.608-11.776,16.384-16.641,28.416-16.384
		c20.224,0.512,30.336,12.671,30.336,33.023V186h-3.584v-36.48c0-18.303-8.96-29.951-27.52-29.695
		c-16.128,0.256-27.521,9.344-27.521,27.136V186h-3.584V118.16z"/>
</g>
</svg>
