<?xml version="1.0" encoding="utf-8"?>
<!-- Generator: Adobe Illustrator 14.0.0, SVG Export Plug-In  -->
<!DOCTYPE svg PUBLIC "-//W3C//DTD SVG 1.1//EN" "http://www.w3.org/Graphics/SVG/1.1/DTD/svg11.dtd" [
	<!ENTITY ns_flows "http://ns.adobe.com/Flows/1.0/">
]>
<svg version="1.1"
	 xmlns="http://www.w3.org/2000/svg" xmlns:xlink="http://www.w3.org/1999/xlink" xmlns:a="http://ns.adobe.com/AdobeSVGViewerExtensions/3.0/"
	 x="0px" y="0px" width="4280px" height="1024px" viewBox="-107.133 -24.91 4280 1024"
	 enable-background="new -107.133 -24.91 4280 1024" xml:space="preserve">
<defs>
</defs>
<circle display="none" fill="#F7F9FC" stroke="#FFFFFF" cx="507.103" cy="762.936" r="64.096"/>
<path display="none" fill="none" stroke="#FFFFFF" stroke-width="72" stroke-linecap="round" d="M685.38,621.112
	c-98.305-98.303-258.254-98.299-356.554,0.001"/>
<path display="none" fill="none" stroke="#FFFFFF" stroke-width="72" stroke-linecap="round" d="M212.953,483.144
	c162.885-161.503,426.8-160.378,588.302,2.502"/>
<path fill="#53A2D9" d="M461.781,717.613c-25.031,25.031-25.031,65.616,0,90.646s65.612,25.03,90.644,0
	c25.032-25.031,25.031-65.615,0-90.646C527.393,692.583,486.812,692.583,461.781,717.613z M552.072,807.906
	c-12.012,12.012-27.982,18.626-44.969,18.626c-16.986,0-32.956-6.614-44.968-18.626s-18.626-27.981-18.626-44.97
	c0-16.987,6.615-32.958,18.626-44.97c12.012-12.011,27.982-18.626,44.968-18.626s32.957,6.615,44.969,18.626
	c12.012,12.012,18.627,27.982,18.627,44.97C570.699,779.923,564.084,795.894,552.072,807.906z"/>
<g>
	<linearGradient id="SVGID_1_" gradientUnits="userSpaceOnUse" x1="507.104" y1="916.6772" x2="507.104" y2="50.1968">
		<stop  offset="0" style="stop-color:#53A2D9"/>
		<stop  offset="1" style="stop-color:#297DB6"/>
	</linearGradient>
	<path fill="url(#SVGID_1_)" d="M1000.582,524.402L540.003,63.823c-18.17-18.17-47.627-18.17-65.797,0L13.627,524.402
		c-18.17,18.168-18.17,47.629,0,65.798L317.478,894.05c14.456,14.455,34.184,22.627,54.627,22.627h269.998
		c20.444,0,40.171-8.172,54.627-22.627L1000.582,590.2C1018.75,572.031,1018.75,542.572,1000.582,524.402z M552.779,808.613
		c-12.201,12.2-28.422,18.919-45.676,18.919c-17.253,0-33.475-6.719-45.675-18.919c-12.201-12.2-18.919-28.422-18.919-45.677
		c0-17.254,6.719-33.477,18.919-45.677s28.422-18.919,45.675-18.919s33.475,6.719,45.676,18.919
		c12.201,12.201,18.92,28.423,18.92,45.677C571.699,780.191,564.98,796.413,552.779,808.613z M710.836,646.568
		c-14.059,14.059-36.853,14.059-50.912,0c-84.266-84.263-221.376-84.264-305.642,0.001c-7.03,7.029-16.243,10.544-25.456,10.544
		s-18.426-3.515-25.456-10.544c-14.059-14.06-14.059-36.853,0-50.912c112.338-112.338,295.126-112.339,407.465-0.001
		C724.895,609.714,724.895,632.508,710.836,646.568z M826.602,511.209c-7.02,6.961-16.185,10.437-25.347,10.437
		c-9.265,0-18.526-3.554-25.565-10.652C628.163,362.206,387.09,361.18,238.3,508.708c-14.119,13.998-36.913,13.9-50.911-0.217
		c-13.999-14.118-13.902-36.912,0.217-50.911c176.981-175.481,463.731-174.261,639.213,2.719
		C840.817,474.417,840.72,497.21,826.602,511.209z"/>
</g>
<g>
	<path fill="#297DB6" d="M1557.616,247.798c-2.048,14.336-14.336,27.648-28.672,27.648h-217.089l-28.672,164.864h192.513
		c14.336,0,24.575,12.288,22.527,26.624l-8.191,49.152c-2.048,14.336-14.336,26.624-28.672,26.624h-196.608l-50.177,285.696
		c-2.048,14.336-17.408,26.625-31.744,26.625h-68.607c-14.337,0-24.576-12.289-22.528-26.625l111.616-632.833
		c2.048-14.336,14.336-26.624,28.672-26.624h312.32c14.337,0,24.576,12.288,22.528,26.624L1557.616,247.798z"/>
	<path fill="#297DB6" d="M1621.096,673.783c3.072,47.104,21.504,84.992,79.872,84.992c47.104,0,78.849-13.312,106.496-23.552
		c14.336-5.12,25.601,1.023,28.672,16.384l8.192,45.056c3.072,16.385-9.216,28.672-20.48,33.793
		c-32.768,16.383-75.775,30.719-142.336,30.719c-111.616,0-183.296-64.512-183.296-201.728c0-148.479,76.8-308.225,235.521-308.225
		c103.424,0,164.864,47.104,164.864,140.288C1898.601,638.967,1783.912,669.687,1621.096,673.783z M1730.664,445.431
		c-52.225,0-91.137,66.56-104.448,145.408c114.688-8.191,156.672-35.84,156.672-92.16
		C1782.888,463.862,1764.456,445.431,1730.664,445.431z"/>
	<path fill="#297DB6" d="M2023.414,673.783c3.072,47.104,21.504,84.992,79.872,84.992c47.104,0,78.849-13.312,106.496-23.552
		c14.336-5.12,25.601,1.023,28.672,16.384l8.192,45.056c3.072,16.385-9.216,28.672-20.48,33.793
		c-32.768,16.383-75.775,30.719-142.336,30.719c-111.616,0-183.296-64.512-183.296-201.728c0-148.479,76.8-308.225,235.521-308.225
		c103.424,0,164.864,47.104,164.864,140.288C2300.919,638.967,2186.23,669.687,2023.414,673.783z M2132.982,445.431
		c-52.225,0-91.137,66.56-104.448,145.408c114.688-8.191,156.672-35.84,156.672-92.16
		C2185.206,463.862,2166.774,445.431,2132.982,445.431z"/>
	<path fill="#297DB6" d="M2662.79,829.432c-3.072,14.336-14.337,25.6-28.673,25.6h-66.56c-14.336,0-25.601-8.193-22.528-25.6
		l10.24-60.417c-22.528,45.056-66.561,92.159-125.952,92.159c-68.608,0-129.024-46.08-129.024-188.416
		c0-162.816,78.848-321.536,234.496-321.536c43.009,0,75.776,20.48,88.064,32.768l39.937-228.353
		c3.071-15.36,15.359-25.6,29.695-25.6h67.585c14.336,0,22.527,12.288,20.479,25.6L2662.79,829.432z M2548.102,448.502
		c-76.801,0-121.856,123.904-121.856,219.137c0,63.488,14.336,89.088,39.937,89.088c49.151,0,116.735-119.809,135.168-246.785
		l5.12-35.839C2597.254,465.911,2577.798,448.502,2548.102,448.502z"/>
	<path fill="#297DB6" d="M2958.919,861.174c-55.296,0-87.04-25.6-103.424-39.936l-37.888,211.969
		c-3.072,16.385-14.336,23.553-29.696,23.553h-68.608c-14.336,0-22.528-10.24-19.456-25.602l112.641-644.096
		c2.048-14.336,12.288-25.6,27.647-25.6h70.656c14.336,0,24.576,11.264,21.504,25.6l-12.288,68.608
		c32.769-59.392,73.729-104.448,136.192-104.448c73.729,0,120.833,64.512,120.833,192.513
		C3177.032,685.047,3110.472,861.174,2958.919,861.174z M3013.191,450.55c-48.128,0-121.856,137.216-138.24,258.049l-4.096,29.696
		c15.359,10.24,35.84,23.552,66.56,23.552c68.608,0,113.665-117.761,113.665-209.921
		C3051.08,488.438,3043.911,450.55,3013.191,450.55z"/>
	<path fill="#297DB6" d="M3373.936,861.174c-111.616,0-182.272-65.535-182.272-201.728c0-197.632,108.545-308.225,239.617-308.225
		c109.568,0,181.248,67.584,181.248,201.729C3612.528,756.727,3500.912,861.174,3373.936,861.174z M3424.112,450.55
		c-54.272,0-112.641,78.849-112.641,199.681c0,71.68,19.456,109.568,68.608,109.568c56.32,0,112.64-82.944,112.64-200.705
		C3492.72,485.367,3471.216,450.55,3424.112,450.55z"/>
	<path fill="#297DB6" d="M3988.427,829.432c-3.072,15.359-13.312,25.6-28.672,25.6h-68.608c-14.336,0-23.552-11.264-21.504-25.6
		l48.128-275.457c9.216-53.248,18.432-103.425-19.456-103.425c-52.225,0-122.88,137.216-155.648,325.633l-9.216,53.249
		c-3.072,16.383-14.336,25.6-28.672,25.6h-68.608c-14.336,0-23.552-11.264-21.504-25.6l76.8-442.37
		c2.048-14.336,11.265-25.6,28.672-25.6h69.633c14.336,0,22.527,11.264,20.479,25.6l-11.264,71.68
		c37.888-69.632,83.968-107.52,147.456-107.52c77.824,0,114.688,61.44,94.208,179.2L3988.427,829.432z"/>
</g>
</svg>
