<?xml version="1.0" encoding="utf-8"?>
<svg xmlns="http://www.w3.org/2000/svg" width="1624" height="438" viewBox="48.2 -0.2 1624 438">
  <path fill="#206798" d="M48.2,243.5v42.7c23.6,0,42.7,19.1,42.7,42.7h42.7C133.5,281.7,95.3,243.5,48.2,243.5z"/>
  <path fill="#297DB7" d="M48.2,158.1v42.7c70.7,0,128,57.3,128,128h42.7C218.9,234.5,142.5,158.1,48.2,158.1z"/>
  <path fill="#53A3DA" d="M48.2,72.8v42.7c117.8,0,213.3,95.5,213.3,213.3h42.7C304.2,187.4,189.6,72.8,48.2,72.8z"/>
  <path fill="#53A3DA" d="M420.6,184l36,0.4l43.6-1.2l3.6,4l-4,40.4l-47.6-1.2l-32.4,0.4l-0.4,20.4l2.4,81.6h-54.4l2.8-76.8 l-2.8-180.8h153.2l3.2,4.4l-4,40.8l-61.2-2.4l-36.8,0.4L420.6,184z"/>
  <path fill="#297DB7" d="M569.6,242.8c2,32.8,17.2,50.4,49.6,50.4c15.6,0,35.2-4.8,53.6-14.4l4.4,2.8l-7.2,39.2 c-16.8,7.2-36.8,12-56,12c-59.2,0-93.6-36.4-93.6-96c0-60.8,36-97.2,92-97.2c46.8,0,72.4,27.6,72.4,73.2c0,6.8-0.8,16.4-1.6,22 l-7.6,7.6L569.6,242.8z M638.8,206.8c0-22-10.8-32.4-28.4-32.4c-21.2,0-34.8,14-39.6,39.2l67.2-2L638.8,206.8z"/>
  <path fill="#206798" d="M751.6,242.8c2,32.8,17.2,50.4,49.6,50.4c15.6,0,35.2-4.8,53.6-14.4l4.4,2.8l-7.2,39.2 c-16.8,7.2-36.8,12-56,12c-59.2,0-93.6-36.4-93.6-96c0-60.8,36-97.2,92-97.2c46.8,0,72.4,27.6,72.4,73.2c0,6.8-0.8,16.4-1.6,22 l-7.6,7.6L751.6,242.8z M820.8,206.8c0-22-10.8-32.4-28.4-32.4c-21.2,0-34.8,14-39.6,39.2l67.2-2L820.8,206.8z"/>
  <path fill="#195178" d="M1053,280.4c0.4,8.8,2.4,12,8.8,12c2.8,0,5.6-0.4,10.8-1.6l3.6,3.2l-4.8,28c-8,5.2-17.2,8.8-29.2,10 c-16.4-1.6-28-11.6-32.4-28h-3.2c-13.6,12.4-24.8,20.4-40,27.6c-53.2,0-82.4-35.6-82.4-94.4c0-63.6,36-97.6,93.6-97.6 c7.6,0,16.4,0.8,25.6,2.4l-0.8-90l52.8-4l-3.2,198.8L1053,280.4z M933.8,229.2c0.8,40.8,14,60.8,38,60.8c10.8,0,20.8-4,32.4-16.4 l0.8-22l-1.2-68.8c-10.4-4.8-20-7.2-29.6-7.2C948.6,175.6,933.4,191.6,933.8,229.2z"/>
  <path fill="#203442" d="M1267,230.8c0,66-35.2,102-92.8,102c-8.8,0-17.6-0.8-26.8-2.4l1.2,72.4h-52.4l2.4-150.8l-2.4-105.6 l50.8-4.4l-0.4,27.2h2.8c15.2-14.4,28-22.4,44.8-28.8C1241.8,140.4,1267,174.4,1267,230.8z M1217,238c-0.4-35.2-12-54.8-35.6-54.8 c-11.6,0-22,5.2-34.8,17.2l-0.4,46.4l0.8,45.2c9.6,4,19.2,6,27.6,6C1200.6,298,1217.4,280.4,1217,238z"/>
  <path fill="#203442" d="M1458.2,232.4c0,64.8-31.6,100.4-90,100.4c-54.4,0-84-33.2-84-93.2c0-64.8,31.6-100.4,90-100.4 C1428.6,139.2,1458.2,172,1458.2,232.4z M1334.2,229.2c0,49.6,11.2,68,37.6,68c25.2,0,36.4-15.2,36.4-54c0-48.8-11.6-68-37.6-68 C1345,175.2,1334.2,191.2,1334.2,229.2z"/>
  <path fill="#203442" d="M1599,212.8c0-18.8-8.4-29.6-25.2-29.6c-12.8,0-25.2,6-38.4,17.2v46.4l2.4,82h-53.2l2.8-76.8l-2.4-105.6 l50.8-4.4v27.2h2.4c15.2-13.6,31.2-23.2,48.4-28.8c40.8,0,62,19.2,61.6,53.6l-1.2,53.2l2,81.6h-53.2L1599,212.8z"/>
  <line stroke="#206798" stroke-width="20" stroke-linecap="round" x1="1040.2" y1="392.8" x2="352.2" y2="392.8"/>
  <line stroke="#206798" stroke-width="20" stroke-linecap="round" x1="1648.2" y1="392.8" x2="1200.2" y2="392.8"/>
</svg>
